<svg width="121" height="124" viewBox="0 0 121 124" fill="none" xmlns="http://www.w3.org/2000/svg">
<path fill-rule="evenodd" clip-rule="evenodd" d="M13.7528 113.535C14.0927 113.6 14.3119 113.627 14.6474 113.686L15.5553 113.869C22.3585 114.962 29.287 111.976 34.6946 108.058C34.7796 107.994 34.7528 107.989 34.8154 107.93C34.9854 107.77 35.1866 107.701 35.4863 107.418C35.5892 107.322 35.6608 107.29 35.7592 107.185C36.3809 106.517 38.0045 105.173 38.7426 104.496C39.0109 104.249 39.0244 104.153 39.1943 103.975C39.2838 103.884 39.2659 103.916 39.3509 103.865C39.5029 103.774 39.6595 103.568 39.7847 103.426C48.3547 93.7747 56.0301 80.1085 59.5055 68.5136C59.5547 68.349 59.5815 68.2255 59.7112 68.1707C60.1854 67.9649 60.9905 68.2347 61.1604 68.2621L61.8761 68.3536C62.1937 68.4404 61.8045 68.4496 62.5515 68.5365C66.7247 69.0165 70.7234 69.3549 74.9279 69.5286C76.1445 69.5789 76.0953 69.268 76.1042 70.5848C76.1132 72.0936 76.0998 73.6115 76.1042 75.1203C76.1042 76.492 76.0953 78.1242 76.2742 79.4867C76.8914 87.8263 79.848 107.084 85.5688 113.074C85.8774 113.398 85.779 113.476 86.2755 113.43C86.4678 113.412 87.9796 112.941 88.0825 112.781C88.3061 112.434 87.8097 112.26 87.586 111.707C82.1157 98.0771 81.6595 88.6447 81.7221 73.8859C81.7266 73.1589 81.6327 72.1073 81.7937 71.5175C81.7981 71.5038 81.7981 71.4946 81.8026 71.4855C81.9234 70.9917 81.7937 70.0635 81.8876 69.6018C81.9681 69.204 82.1157 69.1948 82.5496 69.1948C94.1924 68.5136 99.1081 65.7291 104.999 58.6652C105.061 58.5646 105.137 58.5326 105.187 58.4412C105.334 58.1805 105.151 58.3589 105.495 57.9336C105.808 57.5496 106.403 56.0088 106.475 55.5561C106.511 55.3367 106.524 54.9572 106.394 54.82C106.148 54.5594 105.527 54.4497 105.254 54.8612C105.173 54.9846 105.173 55.0029 105.084 55.1126C96.7822 65.3817 90.3323 66.4241 84.0972 67.4254C82.3349 67.6632 81.8384 67.9786 81.9771 66.7076C83.4531 51.0937 83.9228 35.8502 89.0755 25.604C89.2589 25.2428 89.2454 25.0874 89.3528 24.7764C89.478 24.4153 89.6525 24.3924 89.5764 23.8712C89.3349 23.7157 88.2435 23.2128 88.0378 23.007C87.7157 22.687 87.8991 22.7921 87.416 22.6595C87.2371 22.6093 87.2595 22.5864 87.1566 22.4355C86.8659 22.3852 86.8346 22.3944 86.6825 22.5681C80.4652 29.8104 77.4058 53.1512 76.4307 65.6697L76.3144 66.6939C76.2921 67.1831 76.3726 67.3477 76.1892 67.7272C76.0103 68.0975 75.7956 68.0198 75.3081 68.0152C72.3112 67.9878 64.1438 67.5763 61.7106 66.8082C61.4154 66.7167 61.0531 66.6847 60.6953 66.6619C60.0735 66.6299 60.2122 66.1589 60.2882 66.0583C60.3732 65.944 60.3911 65.9806 60.485 65.7429C60.5477 65.5828 60.5656 65.464 60.655 65.3222C61.0576 64.6867 64.1886 56.2648 64.4212 55.2224C64.4704 55.0029 64.4659 54.9435 64.5777 54.788C64.7924 54.4954 64.77 54.1845 64.855 53.9147C66.2505 49.6169 72.1323 33.1846 75.3304 26.587C76.5291 24.1135 79.1815 20.3552 80.8052 18.2337C80.9215 18.0783 81.0154 18.0325 81.163 17.8314C81.3464 17.5799 81.494 17.4199 81.7311 17.2416C81.9815 17.0587 81.995 16.9581 82.1113 16.8255C82.1739 16.7569 82.2454 16.6929 82.3036 16.6335C83.9183 15.0195 84.4863 14.6674 85.9982 13.4833C87.6665 12.4179 89.5496 11.5767 91.5132 11.4121C91.8486 11.3846 92.6895 11.1012 92.7432 11.5447C92.77 11.755 92.7119 11.7458 92.6358 11.8373C92.5643 11.9196 92.5464 11.9653 92.4972 12.075C92.1215 12.8843 89.9298 15.7602 89.9656 16.4231C90.1176 16.5146 90.1489 16.5512 90.3771 16.5877C91.1285 16.7066 91.4058 16.9078 91.7636 16.9261C92.8103 16.9855 92.6045 16.9718 92.8729 16.35C93.6288 14.896 94.2998 13.5198 95.1585 12.1436C95.3867 11.7778 95.163 12.0247 95.6371 11.3481C97.4576 8.77852 99.77 9.03913 101.913 8.19785C104.516 7.17369 107.222 5.88892 108.743 3.39253C108.814 3.26451 109.06 2.85759 109.078 2.79358C109.114 2.64727 109.127 2.42781 109.154 2.27236C109.221 1.89287 109.172 1.40365 109.065 1.13389C109.015 1.01502 108.899 0.845847 108.814 0.740687C108.304 0.109731 107.316 -0.155453 106.564 0.0914429C102.592 1.38993 99.9624 3.21879 97.14 6.25469L94.9081 8.85167C93.9061 9.79811 85.4346 10.3879 84.8128 10.4016C84.4013 10.4108 83.9004 10.4245 83.4889 10.4611C82.0934 10.5799 81.0378 10.6394 79.5796 10.6531C79.271 10.6577 72.4365 10.7308 72.1323 10.6851C71.9221 10.6531 71.8148 10.6348 71.5419 10.6302L57.8953 10.6211C51.3291 10.6394 46.3688 10.9914 40.1828 12.7151C27.0013 16.9992 18.5208 24.7444 16.9956 39.2747C16.678 43.4034 17.6486 47.5412 19.5093 51.1623C19.5898 51.3223 19.6077 51.4366 19.7061 51.5692C22.855 55.9448 27.4486 60.1008 33.071 60.1786C39.3732 60.2609 41.8333 58.9898 46.91 55.7344C51.772 52.3785 53.7579 48.5105 57.202 43.92C57.2959 43.792 57.3496 43.696 57.4212 43.5451C57.5956 43.1885 57.5509 43.3805 57.6627 43.1976L57.864 42.8044C58.1771 42.274 58.4857 41.6751 57.9445 41.1082C57.3898 40.5229 56.6295 41.4511 56.5579 41.6339C54.8582 46.2244 47.7911 53.0369 43.3988 55.8442C39.8339 57.9565 36.6224 58.6698 32.4851 58.3177C11.409 56.53 20.0461 26.139 40.4601 16.1122C49.5982 12.2991 54.5227 12.1985 65.1323 12.1436C65.5125 12.1436 65.7138 12.1985 66.0135 12.2168C66.3221 12.2351 66.6665 12.2213 66.9752 12.2213C71.0946 12.2213 75.2499 12.2533 79.3649 12.2213C80.0359 12.2168 83.6678 11.9973 83.8378 12.1116C83.9675 12.3814 83.8065 12.4728 83.6499 12.6008C77.4148 17.7445 76.6902 18.8372 72.9509 24.1272C72.8614 24.2689 72.8033 24.3101 72.7093 24.4335C66.756 33.4635 62.5112 43.7783 58.7675 53.9467C58.6378 54.2942 58.7004 54.4177 58.4633 54.7971C57.9355 55.643 55.2563 63.5665 54.7822 65.025C54.7061 65.2582 54.7598 65.4137 54.5138 65.4823C53.9592 65.6423 52.9886 65.2354 52.0672 65.1485C51.8256 65.1256 51.6467 65.1165 51.4186 65.0891C48.8199 64.7324 29.3675 60.7821 29.3496 64.3209C29.3451 65.528 29.6672 65.025 30.5573 64.9885C30.7585 64.9793 30.9867 64.9565 31.2013 64.9382C38.0985 64.2706 44.5975 66.1544 51.3605 66.8722L52.1253 67.0276C52.4026 67.0688 52.7023 67.0505 52.9528 67.1419L53.5745 67.3065C53.7803 67.398 53.74 67.5717 53.6953 67.8003C53.6595 67.9786 53.6371 68.2027 53.5477 68.3536C53.3598 68.669 53.1541 69.4874 53.002 69.7618C52.9349 69.8807 52.9081 70.2053 52.8454 70.3699C47.8359 84.1823 45.0493 93.0111 36.8371 103.088C36.1215 103.966 35.0838 104.981 34.2697 105.859C30.4007 110.065 21.8844 113.577 15.8863 112.274C15.5017 112.191 15.0544 112.05 14.6563 112.027C13.6186 111.967 14.0704 111.858 13.5023 111.711C4.07355 109.279 1.39879 98.8589 2.6646 89.9935C3.70677 82.7055 10.7962 71.5906 16.772 69.2634C17.6084 68.9388 17.4966 68.6142 17.51 67.7866C17.51 67.654 17.5189 67.5443 17.4921 67.4163C17.4563 67.2471 17.4384 67.2608 17.3445 67.1785C17.1164 67.2242 17.2684 67.2059 17.1164 67.3523C7.98281 71.993 2.14128 81.846 0.94703 92.0053C-0.256165 102.224 4.08697 110.55 13.7483 113.554L13.7528 113.535ZM100.566 7.21942C100.061 7.3703 98.549 8.23443 98.1285 8.05612C98.0256 7.8458 98.124 7.63548 98.2493 7.47546C99.0007 6.56103 99.6582 5.89807 100.405 5.06136C102.06 3.69887 104.453 2.10319 106.354 1.54996C106.672 1.45851 107.271 1.30763 107.428 1.7557C107.499 1.96145 107.526 2.48267 107.302 2.74329C106.162 4.10121 104.985 5.16652 103.38 5.9255C102.521 6.33242 101.479 6.94966 100.566 7.22399V7.21942ZM41.641 103.349C41.4978 103.413 38.9304 106.129 38.586 106.481C38.3221 106.746 37.9285 107.016 37.848 107.098C37.9553 107.432 38.5279 107.903 38.8052 108.086C40.9387 109.425 42.7726 110.701 45.0582 111.931C45.1835 111.999 45.2595 112.008 45.3892 112.063C45.4608 112.095 45.4876 112.114 45.5547 112.15C51.7406 115.415 57.0231 116.544 63.862 117.751C75.4557 118.62 79.0339 118.108 89.1381 115.648C89.6122 115.588 89.7419 115.643 90.1624 115.465C90.4755 115.332 90.7438 115.323 91.1017 115.268C94.6173 114.72 99.3093 113.129 102.785 113.947C104.681 114.39 105.562 115.099 106.247 116.919C106.524 117.751 105.965 118.327 107.222 118.181L107.334 118.053C107.495 117.856 107.423 117.257 107.423 116.855C107.423 107.034 107.392 97.1855 107.428 87.3737C107.432 86.2078 107.481 85.1196 107.499 83.9949C107.513 83.1947 107.763 81.0961 107.879 80.0628C107.906 79.8251 108 79.6056 108.058 79.3679C108.215 78.7095 108.085 78.5266 108.389 77.9596C108.519 77.7219 108.488 77.5299 108.595 77.3104C108.872 76.7572 108.707 77.0041 108.832 76.6886L109.387 75.7742C109.436 75.7101 109.458 75.6736 109.494 75.6278C109.606 75.4907 109.744 75.3352 109.892 75.1798L110.769 74.3659C110.858 74.2836 110.898 74.2699 111.024 74.2013C111.176 74.1145 111.162 74.0825 111.297 74.0047L111.851 73.7213C112.12 73.5658 112.124 73.575 112.486 73.5201C113.072 73.4332 112.661 73.2092 113.833 73.1635C114.074 73.1543 114.338 73.104 114.575 73.0446C115.783 72.7337 116.311 73.4469 116.275 72.1027C116.141 71.6958 115.899 71.8101 115.425 71.8055C108.255 71.7735 101.081 71.8284 93.9106 71.8055C93.1592 71.8055 92.4033 71.8147 91.6518 71.8055C91.2001 71.801 90.9138 71.7049 90.8512 72.1347C90.8243 72.3039 90.802 72.5096 90.8422 72.6651C90.9854 73.1863 91.6966 73.0217 92.1528 73.0446C92.5464 73.0674 92.6851 73.1909 93.1144 73.2046C93.4007 73.2138 93.8301 73.3006 94.0761 73.3783C94.2148 73.4195 94.4026 73.4972 94.5144 73.5292C95.1496 73.7213 94.6397 73.4927 95.3598 73.831C95.5029 73.895 95.6058 73.9316 95.7445 73.991C96.2365 74.2013 96.9477 74.8734 97.3502 75.2575C97.6141 75.5044 97.7036 75.8473 97.9138 76.1354C98.0972 76.3868 98.0793 76.5057 98.2224 76.7206C98.3835 76.9675 98.4819 77.2281 98.5892 77.4978C98.7726 77.9642 98.7771 77.7219 98.8799 78.3528L99.3541 80.7395C99.5732 81.8414 99.618 84.955 99.6135 86.2626C99.6135 86.6238 99.6582 86.9668 99.6582 87.3737V105.9C99.6582 106.563 99.7969 107.898 99.5061 108.36C99.372 108.57 99.0812 108.73 98.862 108.872C98.7323 108.959 98.5982 109.009 98.4908 109.119C98.4863 109.123 98.4774 109.137 98.4684 109.142C97.3771 110.271 92.5509 112.466 91.0033 113.279C90.7304 113.421 90.5604 113.375 90.1803 113.595C89.9298 113.741 89.5943 113.764 89.3215 113.878C89.2007 113.929 89.062 114.034 88.9458 114.084C85.0633 115.844 75.4467 116.773 71.4704 116.32C61.0307 115.131 55.1445 112.456 46.0512 106.993C45.8052 106.846 45.6621 106.641 45.4205 106.476C45.264 106.371 45.255 106.334 45.1208 106.225C44.763 105.923 41.8557 103.262 41.6544 103.353L41.641 103.349ZM21.0212 55.7024C20.6991 55.3504 20.5202 54.6508 20.2339 55.4052C19.317 57.8148 19.0128 65.4274 19.0084 68.4953C19.0084 68.9845 18.9771 69.492 19.0665 69.9401C19.1515 70.3745 19.1247 70.8362 19.1828 71.2843C21.0077 85.051 23.8882 93.162 33.2231 103.225L34.0103 103.998C34.471 104.254 38.3355 99.659 38.1477 98.8818C38.0895 98.6395 37.5349 98.0313 37.5081 97.9902C32.0065 89.8152 29.5509 81.8734 28.294 71.4901C28.2001 70.6991 28.2672 69.931 28.1866 69.108C27.9272 66.4424 27.8646 64.8239 28.0212 62.1217C28.124 60.3157 28.4058 60.6724 27.7125 60.3432C27.556 60.2654 27.5336 60.206 27.31 60.1237C25.1138 59.1453 22.7432 57.5816 21.0301 55.7024H21.0212ZM54.7598 20.4969L54.8672 20.4375C59.4429 18.0417 70.0704 16.5009 75.1381 17.5799C75.2499 17.6028 75.809 17.6851 75.9208 17.6622C76.2563 17.6028 76.4397 17.2644 76.6723 17.0404C76.7573 16.9581 76.8378 16.9124 76.9228 16.8209L77.1509 16.5877C77.2403 16.5009 77.2806 16.4231 77.2627 16.2265C77.0212 16.0574 76.5515 16.0848 76.2339 16.0528C76.064 16.0345 75.8448 15.9934 75.6793 15.9751C75.4735 15.9568 75.2857 15.9705 75.0799 15.9385C68.0128 14.896 56.9247 17.1181 50.3317 19.898C39.4537 25.3068 28.3566 33.8293 23.5438 45.4151C23.4589 45.6163 23.347 45.7763 23.271 45.9501C23.1905 46.1421 23.1547 46.3433 23.0339 46.5216C22.8416 46.8005 22.8953 46.6953 22.7835 47.0611C22.0365 49.4889 24.7828 54.029 27.1176 55.0349C27.3279 55.1263 27.2921 55.2224 27.8914 55.4875C27.9898 55.5287 28.0346 55.5881 28.1151 55.6384C28.3029 55.7573 28.4013 54.6097 28.8128 53.2015C31.2953 44.6698 32.6595 41.0259 38.7605 33.683C43.4882 27.9907 49.3924 23.0207 54.7464 20.5061L54.7598 20.4969ZM91.8665 117.431C91.7279 117.294 91.4237 117.079 91.3477 116.987C91.1464 116.32 90.5739 116.905 89.5093 117.01C88.7534 117.088 88.6103 117.239 89.4288 118.044C93.0071 121.336 96.8537 123.114 101.729 123.324C107.003 123.553 113.26 120.604 116.145 116.357C119.003 112.155 120.028 109.471 120.734 104.3C120.886 103.18 120.989 102.343 120.998 101.145C121.021 99.1424 120.922 98.2051 120.698 96.3442C120.202 92.1927 118.61 88.6264 116.651 85.0693C116.646 85.0602 116.637 85.051 116.633 85.0419C115.121 82.7832 113.936 81.5122 111.999 79.7245C111.645 79.3999 111.073 79.1072 110.693 79.4547C110.626 79.5142 110.603 79.5507 110.554 79.6148C110.272 80.0034 110.241 80.3097 110.635 80.7304C110.849 80.9635 111.055 81.1098 111.252 81.3842C111.802 81.878 113.412 83.3685 113.766 83.9537L114.24 84.6213C114.383 84.7721 114.396 84.891 114.517 85.0693C119.911 93.1117 121.36 106.993 115.045 114.93L113.98 116.187C112.527 117.733 110.308 119.616 108.273 120.293C108.018 120.38 107.705 120.577 107.195 120.718L105.585 121.166C105.424 121.208 105.294 121.208 105.142 121.24C99.6359 122.488 95.7355 120.814 91.8621 117.426L91.8665 117.431ZM105.808 45.8175C105.88 45.2277 105.817 44.1898 105.817 43.5497C105.817 39.9285 105.867 12.5917 105.808 12.3265C105.782 12.2168 105.697 12.0476 105.603 11.9927C105.459 11.9059 104.798 11.915 104.663 12.0202C104.601 12.0659 104.493 12.2442 104.48 12.3585C104.449 12.6603 104.475 13.1815 104.471 13.5061C104.431 17.1455 102.973 20.4969 98.7771 19.7974C94.51 19.0841 88.7489 18.1468 84.625 16.9855C84.2493 16.8804 84.1732 16.478 83.2876 17.4656C83.2295 17.5296 83.1982 17.5708 83.14 17.6165L82.4959 18.3206C82.2946 18.5492 82.0978 18.6498 82.1157 19.0064C92.9579 21.8228 103.111 30.9671 104.346 43.0696C104.413 43.7234 104.489 44.6561 104.484 45.3374C104.48 46.0872 104.65 46.0781 105.33 46.0415C105.58 46.0278 105.656 45.9226 105.813 45.8083L105.808 45.8175Z" fill="url(#paint0_linear_252_1217)"/>
<defs>
<linearGradient id="paint0_linear_252_1217" x1="0.754698" y1="61.6737" x2="120.998" y2="61.6737" gradientUnits="userSpaceOnUse">
<stop stop-color="#531200"/>
<stop offset="0.2" stop-color="#B2874E"/>
<stop offset="0.490196" stop-color="#C2A238"/>
<stop offset="0.741176" stop-color="#BD8B26"/>
<stop offset="1" stop-color="#3E2200"/>
</linearGradient>
</defs>
</svg>
