<svg width="379" height="90" viewBox="0 0 379 90" fill="none" xmlns="http://www.w3.org/2000/svg">
<path d="M90.1324 10.4337H91.9956V11.71C91.9956 12.5699 92.2733 13.2025 92.8219 13.6009C93.3706 14.0039 94.235 14.2065 95.4106 14.2065C96.5952 14.2065 97.4059 13.9611 97.8426 13.4771C98.2815 12.9931 98.5009 12.0657 98.5009 10.697V3.57689H100.364V11.3003C100.364 12.9571 99.9633 14.1434 99.166 14.857C98.3688 15.5729 97.0454 15.933 95.1889 15.933C93.478 15.933 92.2128 15.6066 91.382 14.9493C90.5512 14.2965 90.1347 13.297 90.1347 11.9576V10.4314L90.1324 10.4337ZM104.312 3.57914H106.175V11.2711C106.175 12.4236 106.448 13.2002 106.988 13.6032C107.528 14.0061 108.603 14.2087 110.213 14.2087C111.827 14.2087 112.907 14.0061 113.447 13.6032C113.986 13.2002 114.259 12.4214 114.259 11.2711V3.57914H116.123V11.7595C116.123 13.234 115.659 14.2943 114.732 14.9516C113.8 15.6089 112.291 15.9353 110.19 15.9353C108.103 15.9353 106.599 15.6134 105.687 14.9651C104.776 14.3168 104.317 13.252 104.317 11.7573V3.57689L104.312 3.57914ZM120.25 15.5616V3.54988H121.228L128.818 11.9892V3.54988H130.652V15.5616H129.673L122.084 7.1516V15.5616H120.25ZM134.745 15.5616V3.54988H145.949V5.30797H136.606V8.30415H142.737V10.033H136.606V13.835H146.464V15.5639H134.743L134.745 15.5616ZM160.823 10.9717C160.823 11.9261 161.304 12.696 162.269 13.2768C163.234 13.8575 164.538 14.1502 166.181 14.1502C167.814 14.1502 169.108 13.862 170.069 13.2858C171.03 12.7095 171.511 11.9374 171.511 10.9717C171.511 9.98795 171.101 9.27661 170.28 8.8399C169.458 8.4032 168.092 8.18709 166.181 8.18709C164.271 8.18709 162.901 8.4077 162.07 8.84891C161.239 9.28562 160.823 9.99695 160.823 10.9717ZM170.886 7.14485C171.771 7.56805 172.434 8.09029 172.868 8.71384C173.303 9.33739 173.518 10.078 173.518 10.9424C173.518 12.4686 172.859 13.6887 171.545 14.6004C170.226 15.5076 168.441 15.9646 166.181 15.9646C163.913 15.9646 162.117 15.5143 160.798 14.6049C159.475 13.7022 158.816 12.4866 158.816 10.9694C158.816 10.105 159.04 9.3554 159.49 8.71384C159.938 8.07004 160.599 7.54779 161.477 7.14485C160.946 6.80043 160.545 6.39524 160.267 5.93602C159.985 5.47905 159.846 4.97481 159.846 4.4323C159.846 3.22122 160.415 2.25776 161.55 1.54192C162.688 0.826081 164.229 0.465909 166.179 0.465909C168.127 0.465909 169.67 0.826081 170.808 1.54192C171.946 2.25776 172.512 3.22122 172.512 4.4323C172.512 4.97481 172.373 5.47905 172.091 5.93602C171.813 6.39749 171.413 6.80043 170.882 7.14485H170.886ZM170.51 4.34676C170.51 3.72772 170.118 3.22798 169.334 2.83854C168.551 2.44911 167.5 2.25326 166.181 2.25326C164.858 2.25326 163.808 2.44911 163.04 2.84304C162.272 3.23698 161.884 3.75473 161.884 4.40304C161.884 5.02208 162.26 5.50156 163.01 5.85273C163.761 6.19939 164.82 6.37048 166.181 6.37048C167.572 6.37048 168.64 6.19264 169.386 5.84147C170.136 5.49031 170.508 4.99282 170.508 4.34451L170.51 4.34676ZM180.625 15.5616V5.22018H175.582V3.54988H187.532V5.22018H182.489V15.5616H180.625ZM191.251 9.97444V15.5616H189.388V3.54988H191.251V8.21636H199.647V3.54988H201.51V15.5616H199.647V9.97444H191.251ZM216.44 15.5616C216.431 15.2262 216.415 14.8503 216.402 14.4383C216.388 14.0264 216.381 13.7855 216.381 13.718C216.381 12.1332 216.702 10.9244 217.347 10.0892C217.992 9.2541 219.113 8.54726 220.708 7.97774C221.257 7.7909 222.011 7.54103 222.963 7.21913C225.834 6.25342 227.271 5.3665 227.271 4.56061C227.271 3.8988 226.933 3.34503 226.25 2.90832C225.572 2.47162 224.698 2.25551 223.633 2.25551C222.71 2.25551 221.765 2.44235 220.8 2.81153C219.835 3.1807 218.793 3.76148 217.671 4.55836L216.52 3.05464C217.671 2.16097 218.813 1.50365 219.953 1.07595C221.091 0.648246 222.255 0.436646 223.453 0.436646C225.169 0.436646 226.566 0.830584 227.652 1.61396C228.736 2.39733 229.276 3.38555 229.276 4.58537C229.276 6.17914 227.489 7.57705 223.912 8.77687C223.608 8.89168 223.377 8.96821 223.225 9.01774C221.037 9.76284 219.671 10.3909 219.136 10.9041C218.596 11.4174 218.33 12.1287 218.33 13.0314C218.33 13.1124 218.334 13.2047 218.339 13.306C218.343 13.4028 218.357 13.5604 218.386 13.7765H229.562V15.5616H216.437H216.44ZM241.742 14.1795C243.623 14.1795 245.18 13.6122 246.409 12.4799C247.636 11.3431 248.248 9.92042 248.248 8.21636C248.248 6.49203 247.636 5.0671 246.414 3.94382C245.191 2.81603 243.635 2.25326 241.742 2.25326C239.85 2.25326 238.294 2.81603 237.071 3.94382C235.848 5.0671 235.237 6.49203 235.237 8.21636C235.237 9.91141 235.853 11.3318 237.084 12.4709C238.312 13.6099 239.868 14.1795 241.74 14.1795H241.742ZM241.742 15.9646C239.268 15.9646 237.239 15.2307 235.649 13.7653C234.059 12.2953 233.262 10.4472 233.262 8.21636C233.262 5.97429 234.059 4.11715 235.656 2.6472C237.25 1.17275 239.281 0.438897 241.745 0.438897C244.219 0.438897 246.252 1.17275 247.854 2.6472C249.452 4.11715 250.256 5.97429 250.256 8.21636C250.256 10.4494 249.455 12.2976 247.854 13.7653C246.255 15.2285 244.219 15.9646 241.745 15.9646H241.742ZM254.666 15.5616C254.657 15.2262 254.641 14.8503 254.628 14.4383C254.614 14.0264 254.607 13.7855 254.607 13.718C254.607 12.1332 254.928 10.9244 255.573 10.0892C256.218 9.2541 257.34 8.54726 258.934 7.97774C259.483 7.7909 260.237 7.54103 261.189 7.21913C264.06 6.25342 265.498 5.3665 265.498 4.56061C265.498 3.8988 265.159 3.34503 264.476 2.90832C263.798 2.47162 262.924 2.25551 261.859 2.25551C260.936 2.25551 259.991 2.44235 259.026 2.81153C258.061 3.1807 257.019 3.76148 255.897 4.55836L254.746 3.05464C255.897 2.16097 257.039 1.50365 258.179 1.07595C259.317 0.648246 260.481 0.436646 261.679 0.436646C263.395 0.436646 264.792 0.830584 265.878 1.61396C266.962 2.39733 267.502 3.38555 267.502 4.58537C267.502 6.17914 265.715 7.57705 262.138 8.77687C261.834 8.89168 261.603 8.96821 261.451 9.01774C259.263 9.76284 257.897 10.3909 257.362 10.9041C256.822 11.4174 256.556 12.1287 256.556 13.0314C256.556 13.1124 256.56 13.2047 256.565 13.306C256.569 13.4028 256.583 13.5604 256.612 13.7765H267.788V15.5616H254.663H254.666ZM274.988 10.1748H283.78V3.14694L274.988 10.1748ZM283.78 15.5616V11.9892H272.032V10.1748L283.78 0.783311H285.699V10.1748H288.162V11.9892H285.699V15.5616H283.78ZM155.065 49.3615V34.4414H157.013V49.3615H155.065ZM170.882 49.2759L179.909 36.3143H168.591V34.4999H183.521L173.153 49.2759H170.884H170.882ZM189.509 47.1149C189.834 47.1149 190.107 47.2342 190.326 47.4796C190.546 47.7204 190.656 48.0356 190.656 48.416C190.656 48.7807 190.546 49.0824 190.326 49.3232C190.107 49.5596 189.834 49.6789 189.509 49.6789C189.175 49.6789 188.893 49.5596 188.669 49.3232C188.445 49.0824 188.336 48.7807 188.336 48.416C188.336 48.0469 188.45 47.734 188.68 47.4841C188.909 47.2387 189.187 47.1149 189.511 47.1149H189.509ZM189.509 39.0493C189.834 39.0493 190.107 39.1641 190.326 39.4005C190.546 39.6368 190.656 39.943 190.656 40.3167C190.656 40.6903 190.546 41.0032 190.326 41.2486C190.107 41.494 189.834 41.6133 189.509 41.6133C189.184 41.6133 188.907 41.494 188.678 41.2486C188.45 41.0032 188.333 40.6926 188.333 40.3167C188.333 39.952 188.443 39.6503 188.667 39.4095C188.891 39.1686 189.173 39.0493 189.507 39.0493H189.509ZM203.807 47.8915C205.688 47.8915 207.245 47.3243 208.474 46.192C209.701 45.0552 210.313 43.6325 210.313 41.9284C210.313 40.2041 209.701 38.7792 208.479 37.6559C207.256 36.5281 205.7 35.9653 203.807 35.9653C201.915 35.9653 200.359 36.5281 199.136 37.6559C197.913 38.7792 197.302 40.2041 197.302 41.9284C197.302 43.6235 197.918 45.0439 199.149 46.183C200.377 47.322 201.933 47.8915 203.805 47.8915H203.807ZM203.807 49.6766C201.333 49.6766 199.304 48.9428 197.714 47.4773C196.124 46.0074 195.327 44.1593 195.327 41.9284C195.327 39.6864 196.124 37.8292 197.721 36.3593C199.315 34.8848 201.346 34.151 203.81 34.151C206.284 34.151 208.317 34.8848 209.919 36.3593C211.518 37.8292 212.321 39.6864 212.321 41.9284C212.321 44.1615 211.52 46.0096 209.919 47.4773C208.32 48.9405 206.284 49.6766 203.81 49.6766H203.807ZM222.92 47.8915C224.801 47.8915 226.358 47.3243 227.587 46.192C228.814 45.0552 229.426 43.6325 229.426 41.9284C229.426 40.2041 228.814 38.7792 227.592 37.6559C226.369 36.5281 224.813 35.9653 222.92 35.9653C221.028 35.9653 219.472 36.5281 218.249 37.6559C217.026 38.7792 216.415 40.2041 216.415 41.9284C216.415 43.6235 217.031 45.0439 218.262 46.183C219.49 47.322 221.046 47.8915 222.918 47.8915H222.92ZM222.92 49.6766C220.446 49.6766 218.417 48.9428 216.827 47.4773C215.237 46.0074 214.44 44.1593 214.44 41.9284C214.44 39.6864 215.237 37.8292 216.834 36.3593C218.428 34.8848 220.459 34.151 222.923 34.151C225.397 34.151 227.43 34.8848 229.032 36.3593C230.631 37.8292 231.434 39.6864 231.434 41.9284C231.434 44.1615 230.633 46.0096 229.032 47.4773C227.433 48.9405 225.397 49.6766 222.923 49.6766H222.92ZM1.86316 82.0531H8.21401C8.85895 82.0531 9.35161 81.9136 9.68976 81.6299C10.0279 81.3463 10.2003 80.9433 10.2003 80.4143C10.2003 79.8898 10.0279 79.4869 9.68976 79.2145C9.35161 78.9354 8.85895 78.7958 8.21401 78.7958H1.86316V82.0509V82.0531ZM1.86316 83.8112V89.054H0V77.0715H8.21401C9.43671 77.0715 10.3929 77.3686 11.0849 77.9607C11.7768 78.5505 12.1217 79.3721 12.1217 80.4233C12.1217 81.2743 11.8485 82.0126 11.2999 82.6362C10.7557 83.2597 10.0436 83.6446 9.16574 83.7842L12.4934 89.0562H10.4646L7.07417 83.8135H1.86316V83.8112ZM15.5323 89.054V77.013H17.4245V89.054H15.5323ZM24.3867 89.054V78.7125H19.3437V77.0422H31.293V78.7125H26.2499V89.054H24.3867ZM31.602 89.054L39.348 78.8003H32.2895V77.0422H42.7921L34.979 87.3251H42.7205V89.054H31.602ZM65.674 86.1163C64.9955 87.1923 64.102 88.0117 62.9957 88.579C61.8917 89.1463 60.631 89.4299 59.2224 89.4299C57.1263 89.4299 55.3976 88.8334 54.036 87.638C52.679 86.4427 52.0004 84.9255 52.0004 83.0909C52.0004 81.2517 52.679 79.7345 54.036 78.5302C55.3976 77.3259 57.1263 76.7248 59.2224 76.7248C60.5302 76.7248 61.7148 76.9702 62.7807 77.4632C63.8467 77.9539 64.6999 78.6495 65.356 79.5477L63.8713 80.5854C63.3787 79.9033 62.7293 79.3744 61.9231 79.0052C61.1169 78.636 60.2189 78.4537 59.2291 78.4537C57.6951 78.4537 56.4299 78.8904 55.4267 79.7683C54.4234 80.6417 53.9218 81.7425 53.9218 83.0616C53.9218 84.383 54.4234 85.4815 55.4311 86.3549C56.4389 87.2328 57.7041 87.6696 59.2269 87.6696C60.2861 87.6696 61.2289 87.4579 62.0395 87.0415C62.8524 86.6183 63.5623 85.9655 64.1781 85.0786L65.674 86.1163ZM71.3867 84.4167H76.058L73.738 79.8133L71.3889 84.4167H71.3867ZM67.0557 89.054L73.1356 77.0422H74.3113L80.4382 89.054H78.4362L76.8843 86.0015H70.576L69.0331 89.054H67.0557ZM84.1107 82.0531H90.4616C91.1066 82.0531 91.5992 81.9136 91.9374 81.6299C92.2755 81.3463 92.4479 80.9433 92.4479 80.4143C92.4479 79.8898 92.2755 79.4869 91.9374 79.2145C91.5992 78.9354 91.1066 78.7958 90.4616 78.7958H84.1107V82.0509V82.0531ZM84.1107 83.8112V89.054H82.2476V77.0715H90.4616C91.6843 77.0715 92.6405 77.3686 93.3325 77.9607C94.0244 78.5505 94.3693 79.3721 94.3693 80.4233C94.3693 81.2743 94.0961 82.0126 93.5475 82.6362C93.0033 83.2597 92.2912 83.6446 91.4133 83.7842L94.741 89.0562H92.7122L89.3218 83.8135H84.1107V83.8112ZM97.7508 89.054V77.0422H99.6139V87.3251H108.497V89.054H97.7508ZM111.234 89.054V78.7125H106.191V77.0422H118.14V78.7125H113.097V89.054H111.234ZM126.274 87.6718C127.868 87.6718 129.174 87.2396 130.181 86.3707C131.189 85.5063 131.691 84.4032 131.691 83.0639C131.691 81.7335 131.185 80.6349 130.172 79.7615C129.16 78.8926 127.861 78.4559 126.276 78.4559C124.69 78.4559 123.396 78.8881 122.393 79.757C121.39 80.6214 120.888 81.7245 120.888 83.0639C120.888 84.4032 121.39 85.5085 122.393 86.3707C123.396 87.2396 124.69 87.6718 126.276 87.6718H126.274ZM126.274 89.4299C124.148 89.4299 122.395 88.8243 121.025 87.6155C119.654 86.4112 118.967 84.894 118.967 83.0639C118.967 81.2292 119.65 79.712 121.016 78.5167C122.386 77.3214 124.14 76.7248 126.274 76.7248C128.428 76.7248 130.19 77.3214 131.561 78.5099C132.927 79.7008 133.61 81.218 133.61 83.0616C133.61 84.9007 132.922 86.418 131.552 87.6223C130.181 88.8266 128.423 89.4276 126.274 89.4276V89.4299ZM136.676 89.0562V77.0445H137.654L145.243 85.4838V77.0445H147.077V89.0562H146.099L138.51 80.6462V89.0562H136.676ZM162.753 84.419H167.424L165.104 79.8156L162.755 84.419H162.753ZM158.422 89.0562L164.502 77.0445H165.678L171.805 89.0562H169.803L168.251 86.0038H161.942L160.399 89.0562H158.422ZM173.585 89.0562V77.0445H175.448V87.3274H184.332V89.0562H173.585ZM186.457 89.0562V77.0445H188.009L192.899 84.0723L197.799 77.0445H199.351V89.0562H197.488V80.4188L192.897 87.0978L188.318 80.4188V89.0562H186.454H186.457ZM205.485 84.419H210.156L207.836 79.8156L205.487 84.419H205.485ZM201.154 89.0562L207.234 77.0445H208.409L214.536 89.0562H212.534L210.982 86.0038H204.674L203.131 89.0562H201.154ZM218.133 89.0562V78.7148H213.09V77.0445H225.039V78.7148H219.996V89.0562H218.133ZM230.335 89.0562V82.9243L224.891 77.0445H227.298L231.262 81.308L235.15 77.0445H237.642L232.169 82.8973V89.0562H230.335ZM249.271 89.0562V77.0737H251.134V82.402L257.467 77.0737H259.93L254.916 81.3373L260.676 89.0562H258.58L253.6 82.4313L251.136 84.5293V89.0562H249.273H249.271ZM264.897 84.419H269.569L267.249 79.8156L264.9 84.419H264.897ZM260.566 89.0562L266.646 77.0445H267.822L273.949 89.0562H271.947L270.395 86.0038H264.087L262.544 89.0562H260.566ZM274.182 89.0562L281.928 78.8026H274.869V77.0445H285.372L277.559 87.3274H285.3V89.0562H274.182ZM290.292 84.419H294.963L292.643 79.8156L290.294 84.419H290.292ZM285.961 89.0562L292.041 77.0445H293.216L299.343 89.0562H297.341L295.789 86.0038H289.481L287.938 89.0562H285.961ZM301.153 89.0562V77.0737H303.016V82.402L309.349 77.0737H311.812L306.798 81.3373L312.558 89.0562H310.462L305.481 82.4313L303.018 84.5293V89.0562H301.155H301.153ZM316.602 83.469V89.0562H314.739V77.0445H316.602V81.711H324.998V77.0445H326.861V89.0562H324.998V83.469H316.602ZM329.897 87.521L330.804 85.9475C331.626 86.499 332.524 86.9312 333.494 87.2396C334.468 87.5525 335.395 87.7056 336.282 87.7056C337.348 87.7056 338.205 87.4895 338.862 87.0528C339.515 86.6161 339.84 86.06 339.84 85.378C339.84 84.6914 339.54 84.1871 338.942 83.8517C338.344 83.5208 337.404 83.3385 336.114 83.3002C333.937 83.271 332.441 83.0166 331.628 82.5416C330.815 82.0621 330.41 81.2698 330.41 80.1645C330.41 79.1312 330.854 78.3028 331.747 77.6725C332.641 77.0445 333.839 76.7316 335.344 76.7316C336.371 76.7316 337.363 76.8756 338.333 77.1683C339.298 77.4564 340.23 77.8886 341.128 78.4604L340.187 80.0159C339.442 79.5117 338.64 79.1222 337.78 78.8453C336.92 78.5707 336.098 78.4334 335.317 78.4334C334.41 78.4334 333.677 78.591 333.129 78.9084C332.58 79.2303 332.302 79.6422 332.302 80.1555C332.302 80.689 332.58 81.0672 333.133 81.2945C333.686 81.5196 334.652 81.6299 336.022 81.6299C337.928 81.6299 339.361 81.9518 340.331 82.6001C341.3 83.2484 341.786 84.2074 341.786 85.486C341.786 86.6183 341.294 87.5592 340.31 88.3134C339.327 89.063 338.051 89.4366 336.486 89.4366C335.326 89.4366 334.179 89.2678 333.032 88.9369C331.89 88.606 330.845 88.1355 329.895 87.5255L329.897 87.521ZM347.956 89.0562V78.7148H342.913V77.0445H354.862V78.7148H349.819V89.0562H347.956ZM357.737 84.419H362.409L360.089 79.8156L357.739 84.419H357.737ZM353.406 89.0562L359.486 77.0445H360.662L366.789 89.0562H364.787L363.235 86.0038H356.927L355.384 89.0562H353.406ZM368.598 89.0562V77.0445H369.577L377.166 85.4838V77.0445H379V89.0562H378.021L370.432 80.6462V89.0562H368.598ZM44.3037 80.4729H50.35V82.1724H44.3037V80.4729Z" fill="url(#paint0_linear_252_1223)"/>
<defs>
<linearGradient id="paint0_linear_252_1223" x1="-0.00223937" y1="41.9014" x2="378.989" y2="41.9014" gradientUnits="userSpaceOnUse">
<stop stop-color="#531200"/>
<stop offset="0.2" stop-color="#967242"/>
<stop offset="0.490196" stop-color="#553D2D"/>
<stop offset="0.741176" stop-color="#A66A35"/>
<stop offset="1" stop-color="#3E2200"/>
</linearGradient>
</defs>
</svg>
