<svg width="416" height="60" viewBox="0 0 416 60" fill="none" xmlns="http://www.w3.org/2000/svg">
<path d="M110.552 14.1269V7.3326L104.515 0.816265H107.184L111.579 5.54067L115.89 0.816265H118.654L112.583 7.30148V14.1269H110.55H110.552ZM126.762 12.595C128.53 12.595 129.977 12.117 131.095 11.1521C132.213 10.1939 132.768 8.97114 132.768 7.48601C132.768 6.012 132.206 4.79366 131.084 3.82654C129.962 2.86388 128.521 2.37921 126.762 2.37921C125.005 2.37921 123.569 2.85721 122.455 3.8221C121.342 4.78032 120.787 6.0031 120.787 7.48823C120.787 8.97336 121.342 10.1961 122.455 11.1544C123.569 12.117 125.003 12.5973 126.762 12.5973V12.595ZM126.762 14.5426C124.405 14.5426 122.462 13.8734 120.942 12.5306C119.422 11.1944 118.66 9.51361 118.66 7.48601C118.66 5.45396 119.417 3.77318 120.933 2.44813C122.453 1.12307 124.396 0.462769 126.764 0.462769C129.152 0.462769 131.106 1.12307 132.626 2.44146C134.14 3.75985 134.899 5.44284 134.899 7.48601C134.899 9.52473 134.136 11.2055 132.618 12.5395C131.097 13.8756 129.148 14.5404 126.766 14.5404L126.762 14.5426ZM138.296 0.84739H140.361V9.37132C140.361 10.6475 140.662 11.5101 141.261 11.957C141.859 12.4038 143.052 12.6262 144.835 12.6262C146.626 12.6262 147.823 12.4016 148.42 11.957C149.018 11.5101 149.321 10.6475 149.321 9.37132V0.84739H151.386V9.91379C151.386 11.5479 150.872 12.724 149.846 13.451C148.812 14.1802 147.139 14.5426 144.809 14.5426C142.494 14.5426 140.825 14.1869 139.814 13.4688C138.803 12.7507 138.294 11.5701 138.294 9.91379V0.84739H138.296ZM168.78 8.9867H173.958L171.385 3.88435L168.78 8.9867ZM163.976 14.1269L170.716 0.816265H172.02L178.814 14.1269H176.594L174.872 10.7431H167.877L166.166 14.1269H163.973H163.976ZM182.888 6.36994H189.932C190.646 6.36994 191.193 6.21653 191.567 5.90083C191.943 5.58736 192.134 5.14048 192.134 4.55577C192.134 3.9755 191.943 3.52863 191.567 3.22627C191.191 2.91723 190.646 2.76383 189.932 2.76383H182.888V6.37216V6.36994ZM182.888 8.3175V14.1269H180.823V0.84739H189.932C191.288 0.84739 192.346 1.17643 193.114 1.83229C193.882 2.48592 194.262 3.39746 194.262 4.56244C194.262 5.5051 193.961 6.32325 193.351 7.01468C192.747 7.70611 191.959 8.13297 190.983 8.28638L194.674 14.1291H192.423L188.664 8.31973H182.885L182.888 8.3175ZM198.013 14.1269V0.816265H210.437V2.76383H200.078V6.08314H206.879V7.99958H200.078V12.2126H211.008V14.1291H198.011L198.013 14.1269ZM224.578 14.1269V0.782916H226.676V14.1269H224.578ZM231.283 14.1269V0.816265H232.37L240.786 10.1695V0.816265H242.82V14.1269H241.733L233.317 4.80477V14.1269H231.283ZM253.139 14.1269H252.07L245.418 0.816265H247.622L252.601 10.7764L257.505 0.816265H259.782L253.141 14.1269H253.139ZM262.391 14.1269V0.782916H264.489V14.1269H262.391ZM272.21 14.1269V2.66601H266.618V0.814042H279.867V2.66601H274.275V14.1269H272.21ZM281.928 14.1269V0.816265H294.351V2.76383H283.992V6.08314H290.793V7.99958H283.992V12.2126H294.922V14.1291H281.925L281.928 14.1269ZM303.779 0.816265C305.945 0.816265 307.687 1.43877 309.017 2.67935C310.34 3.92437 311.002 5.53622 311.002 7.52158C311.002 9.52695 310.351 11.1277 309.052 12.3305C307.755 13.5266 305.996 14.1291 303.779 14.1291H297.91V0.818488H303.779V0.816265ZM303.81 2.7327H299.974V12.2126H303.81C305.383 12.2126 306.622 11.788 307.523 10.9409C308.424 10.0939 308.873 8.94001 308.873 7.48823C308.873 6.08314 308.406 4.94039 307.474 4.05554C306.543 3.17291 305.323 2.73048 303.81 2.73048V2.7327ZM5.59221 58.6229V47.1621H0V45.3101H13.2491V47.1621H7.65693V58.6229H5.59221ZM22.2693 57.0911C24.0374 57.0911 25.4847 56.6131 26.6023 55.6482C27.7198 54.69 28.2753 53.4672 28.2753 51.9821C28.2753 50.5081 27.7132 49.2897 26.5912 48.3226C25.4692 47.36 24.0286 46.8753 22.2693 46.8753C20.5122 46.8753 19.0759 47.3533 17.9628 48.3182C16.8497 49.2764 16.2942 50.4992 16.2942 51.9843C16.2942 53.4694 16.8497 54.6922 17.9628 55.6505C19.0759 56.6131 20.5099 57.0933 22.2693 57.0933V57.0911ZM22.2693 59.0387C19.9124 59.0387 17.9694 58.3695 16.4491 57.0266C14.9288 55.6905 14.1675 54.0097 14.1675 51.9821C14.1675 49.95 14.9244 48.2693 16.4403 46.9442C17.9606 45.6192 19.9036 44.9589 22.2715 44.9589C24.6593 44.9589 26.6134 45.6192 28.1337 46.9375C29.6474 48.2559 30.4064 49.9389 30.4064 51.9821C30.4064 54.0208 29.6429 55.7016 28.1248 57.0355C26.6045 58.3717 24.6549 59.0365 22.2737 59.0365L22.2693 59.0387ZM58.3719 55.3681C57.6195 56.5598 56.6303 57.4691 55.4021 58.0983C54.1783 58.7252 52.7797 59.0409 51.2173 59.0409C48.8915 59.0409 46.975 58.3806 45.4658 57.0555C43.9609 55.7305 43.2085 54.0497 43.2085 52.0177C43.2085 49.9789 43.9609 48.2982 45.4658 46.9642C46.975 45.628 48.8915 44.9633 51.2173 44.9633C52.669 44.9633 53.9813 45.2345 55.1631 45.7837C56.3448 46.3261 57.292 47.0976 58.0178 48.0936L56.3714 49.243C55.8248 48.4871 55.1055 47.9024 54.2115 47.4934C53.3174 47.0843 52.3216 46.882 51.224 46.882C49.5244 46.882 48.1213 47.3666 47.0082 48.3404C45.8951 49.3097 45.3396 50.5281 45.3396 51.991C45.3396 53.4539 45.8951 54.6722 47.0126 55.6416C48.1302 56.6153 49.5332 57.1 51.2217 57.1C52.3968 57.1 53.4414 56.8666 54.3421 56.4041C55.2427 55.935 56.0306 55.2125 56.7144 54.2276L58.3719 55.377V55.3681ZM61.8573 58.6252V45.3146H74.281V47.2621H63.9221V50.5814H70.7226V52.4979H63.9221V56.7109H74.852V58.6274H61.8551L61.8573 58.6252ZM77.8085 58.6252V45.3146H79.8733V56.7109H89.7232V58.6274H77.8085V58.6252ZM92.0801 58.6252V45.3146H104.504V47.2621H94.1448V50.5814H100.945V52.4979H94.1448V56.7109H105.075V58.6274H92.0779L92.0801 58.6252ZM116.133 47.2599H110.127V50.388H116.164C116.826 50.388 117.324 50.2546 117.662 49.9901C117.996 49.7299 118.165 49.3364 118.165 48.814C118.165 48.2982 117.994 47.9091 117.662 47.649C117.324 47.3889 116.815 47.2599 116.131 47.2599H116.133ZM116.832 52.3356H110.127V56.7087H116.832C117.558 56.7087 118.118 56.5175 118.521 56.1284C118.917 55.746 119.118 55.2036 119.118 54.5055C119.118 53.8185 118.917 53.2871 118.521 52.9047C118.118 52.5268 117.556 52.3356 116.832 52.3356ZM108.062 58.6252V45.3457H116.197C117.543 45.3457 118.565 45.6214 119.258 46.1816C119.953 46.7352 120.296 47.5534 120.296 48.6294C120.296 49.1719 120.189 49.6499 119.973 50.0723C119.756 50.4925 119.437 50.8327 119.025 51.0928C119.762 51.5085 120.318 52.0132 120.687 52.6135C121.064 53.2093 121.249 53.8852 121.249 54.63C121.249 55.8706 120.836 56.8443 120.015 57.5558C119.189 58.2694 118.049 58.6252 116.598 58.6252H108.06H108.062ZM127.413 50.8682H134.457C135.171 50.8682 135.718 50.7148 136.092 50.3991C136.468 50.0857 136.658 49.6388 136.658 49.0541C136.658 48.4738 136.468 48.0269 136.092 47.7246C135.716 47.4155 135.171 47.2621 134.457 47.2621H127.413V50.8705V50.8682ZM127.413 52.8158V58.6252H125.348V45.3457H134.457C135.813 45.3457 136.871 45.6747 137.639 46.3306C138.407 46.9842 138.787 47.8958 138.787 49.0607C138.787 50.0034 138.486 50.8216 137.876 51.513C137.271 52.2044 136.484 52.6313 135.508 52.7847L139.199 58.6274H136.948L133.188 52.818H127.41L127.413 52.8158ZM144.242 53.485H149.421L146.847 48.3827L144.242 53.485ZM139.438 58.6252L146.179 45.3146H147.482L154.276 58.6252H152.056L150.335 55.2414H143.339L141.629 58.6252H139.436H139.438ZM158.264 58.6252V47.1643H152.672V45.3123H165.921V47.1643H160.329V58.6252H158.264ZM167.981 58.6252V45.3146H180.405V47.2621H170.046V50.5814H176.846V52.4979H170.046V56.7109H180.976V58.6274H167.979L167.981 58.6252ZM197.659 58.6252V47.1643H192.067V45.3123H205.316V47.1643H199.724V58.6252H197.659ZM209.443 52.4312V58.6252H207.379V45.3146H209.443V50.4858H218.754V45.3146H220.818V58.6252H218.754V52.4312H209.443ZM225.331 58.6252V45.3146H237.754V47.2621H227.395V50.5814H234.196V52.4979H227.395V56.7109H238.325V58.6274H225.328L225.331 58.6252ZM251.862 58.6252V45.3146H253.584L259.005 53.1026L264.438 45.3146H266.16V58.6252H264.095V49.0541L259.005 56.4553L253.927 49.0541V58.6252H251.862ZM272.961 53.485H278.139L275.565 48.3827L272.961 53.485ZM268.156 58.6252L274.897 45.3146H276.2L282.994 58.6252H280.775L279.053 55.2414H272.058L270.347 58.6252H268.154H268.156ZM287.068 50.8682H294.112C294.827 50.8682 295.374 50.7148 295.748 50.3991C296.124 50.0857 296.314 49.6388 296.314 49.0541C296.314 48.4738 296.124 48.0269 295.748 47.7246C295.371 47.4155 294.827 47.2621 294.112 47.2621H287.068V50.8705V50.8682ZM287.068 52.8158V58.6252H285.004V45.3457H294.112C295.469 45.3457 296.527 45.6747 297.295 46.3306C298.062 46.9842 298.443 47.8958 298.443 49.0607C298.443 50.0034 298.142 50.8216 297.531 51.513C296.927 52.2044 296.139 52.6313 295.163 52.7847L298.855 58.6274H296.604L292.844 52.818H287.066L287.068 52.8158ZM304.29 50.8682H311.334C312.049 50.8682 312.595 50.7148 312.969 50.3991C313.345 50.0857 313.536 49.6388 313.536 49.0541C313.536 48.4738 313.345 48.0269 312.969 47.7246C312.593 47.4155 312.049 47.2621 311.334 47.2621H304.29V50.8705V50.8682ZM304.29 52.8158V58.6252H302.225V45.3457H311.334C312.69 45.3457 313.748 45.6747 314.516 46.3306C315.284 46.9842 315.665 47.8958 315.665 49.0607C315.665 50.0034 315.364 50.8216 314.753 51.513C314.149 52.2044 313.361 52.6313 312.385 52.7847L316.076 58.6274H313.826L310.066 52.818H304.288L304.29 52.8158ZM319.447 58.6252V45.2812H321.544V58.6252H319.447ZM328.38 53.485H333.559L330.985 48.3827L328.38 53.485ZM323.576 58.6252L330.317 45.3146H331.62L338.414 58.6252H336.194L334.473 55.2414H327.477L325.767 58.6252H323.574H323.576ZM349.384 53.4539V51.5374H354.85V55.5548C354.082 56.6931 353.086 57.5602 351.853 58.1516C350.625 58.743 349.196 59.0409 347.569 59.0409C345.128 59.0409 343.132 58.3806 341.579 57.0555C340.027 55.7305 339.248 54.0497 339.248 52.0177C339.248 49.9789 340.027 48.2982 341.59 46.9642C343.152 45.628 345.144 44.9633 347.569 44.9633C349.101 44.9633 350.455 45.2301 351.641 45.757C352.827 46.2884 353.812 47.0665 354.595 48.0936L353.002 49.243C352.44 48.5094 351.683 47.9291 350.729 47.5089C349.771 47.0887 348.718 46.882 347.567 46.882C345.757 46.882 344.274 47.3666 343.112 48.3293C341.953 49.2964 341.375 50.517 341.375 51.9888C341.375 53.4628 341.953 54.6811 343.108 55.6482C344.263 56.6109 345.746 57.0956 347.567 57.0956C348.707 57.0956 349.76 56.8888 350.729 56.473C351.694 56.0573 352.371 55.5304 352.752 54.8879V53.4561H349.384V53.4539ZM358.636 58.6252V45.3146H371.06V47.2621H360.701V50.5814H367.501V52.4979H360.701V56.7109H371.631V58.6274H358.634L358.636 58.6252ZM392.128 57.0933C393.896 57.0933 395.343 56.6153 396.461 55.6505C397.578 54.6922 398.134 53.4694 398.134 51.9843C398.134 50.5103 397.572 49.292 396.45 48.3248C395.328 47.3622 393.887 46.8775 392.128 46.8775C390.37 46.8775 388.934 47.3555 387.821 48.3204C386.708 49.2786 386.153 50.5014 386.153 51.9865C386.153 53.4717 386.708 54.6945 387.821 55.6527C388.934 56.6153 390.368 57.0956 392.128 57.0956V57.0933ZM392.128 59.0409C389.771 59.0409 387.828 58.3717 386.307 57.0289C384.787 55.6927 384.026 54.0119 384.026 51.9843C384.026 49.9523 384.783 48.2715 386.299 46.9464C387.819 45.6214 389.762 44.9611 392.13 44.9611C394.518 44.9611 396.472 45.6214 397.992 46.9398C399.506 48.2581 400.265 49.9411 400.265 51.9843C400.265 54.023 399.501 55.7038 397.983 57.0378C396.463 58.3739 394.513 59.0387 392.132 59.0387L392.128 59.0409ZM405.695 52.4979V58.6274H403.631V45.3168H415.864V47.2644H405.695V50.5837H412.272V52.5001H405.695V52.4979Z" fill="url(#paint0_linear_252_1220)"/>
<defs>
<linearGradient id="paint0_linear_252_1220" x1="-0.00221298" y1="29.7518" x2="415.864" y2="29.7518" gradientUnits="userSpaceOnUse">
<stop stop-color="#531200"/>
<stop offset="0.2" stop-color="#B2874E"/>
<stop offset="0.490196" stop-color="#C2A238"/>
<stop offset="0.741176" stop-color="#BD8B26"/>
<stop offset="1" stop-color="#3E2200"/>
</linearGradient>
</defs>
</svg>
