<svg width="143" height="11" viewBox="0 0 143 11" fill="none" xmlns="http://www.w3.org/2000/svg">
<path d="M0 3.24275H5.26283V4.71487H0V3.24275ZM30.5751 1.79517H25.8602V4.24052H30.5996C31.119 4.24052 31.5115 4.13829 31.7773 3.92974C32.039 3.72528 32.174 3.41859 32.174 3.00967C32.174 2.60483 32.039 2.30223 31.7773 2.09777C31.5115 1.89331 31.1108 1.79517 30.5751 1.79517ZM31.123 5.76171H25.8602V9.1803H31.123C31.6915 9.1803 32.1331 9.029 32.448 8.72639C32.7587 8.42788 32.9182 8.0026 32.9182 7.45874C32.9182 6.92305 32.7587 6.50595 32.448 6.20744C32.1331 5.91301 31.6915 5.76171 31.123 5.76171ZM24.2409 10.677V0.302602H30.6242C31.6792 0.302602 32.4807 0.519331 33.0286 0.956877C33.5725 1.39033 33.8424 2.02825 33.8424 2.87063C33.8424 3.29591 33.7606 3.66803 33.5888 3.99517C33.4171 4.3223 33.1677 4.5881 32.8446 4.79256C33.4212 5.11561 33.8587 5.51227 34.1491 5.98253C34.4435 6.4487 34.5907 6.97621 34.5907 7.55688C34.5907 8.52602 34.2677 9.28662 33.6216 9.84275C32.9714 10.3989 32.0799 10.677 30.939 10.677H24.2368H24.2409ZM37.7844 10.677V0.278067H39.4037V9.1803H47.1364V10.677H37.7844ZM50.7636 6.66134H54.8283L52.8082 2.67435L50.7636 6.66134ZM46.9933 10.677L52.2848 0.278067H53.3071L58.6394 10.677H56.8974L55.548 8.03123H50.0561L48.7149 10.677H46.9933ZM71.1933 8.13346C70.6045 9.0658 69.8275 9.77732 68.8624 10.2639C67.9015 10.7546 66.8056 11 65.5788 11C63.755 11 62.2502 10.4848 61.0643 9.45019C59.8825 8.41561 59.2937 7.10297 59.2937 5.51227C59.2937 3.92156 59.8825 2.60483 61.0643 1.56208C62.2502 0.519331 63.755 0 65.5788 0C66.7197 0 67.7502 0.212639 68.6743 0.642007C69.6026 1.06729 70.3468 1.6684 70.9152 2.44535L69.623 3.34498C69.1937 2.75613 68.6294 2.29814 67.926 1.97918C67.2227 1.66022 66.4416 1.50074 65.5829 1.50074C64.2498 1.50074 63.1457 1.88104 62.2747 2.64164C61.4037 3.39814 60.9662 4.35093 60.9662 5.49182C60.9662 6.6368 61.4037 7.5855 62.2788 8.34201C63.1539 9.1026 64.258 9.4829 65.5829 9.4829C66.5071 9.4829 67.3249 9.29889 68.0323 8.93903C68.7398 8.57509 69.3572 8.00669 69.8929 7.23792L71.1933 8.13755V8.13346ZM73.9535 10.677V0.302602H75.5729V4.91524L81.0851 0.302602H83.232L78.8688 3.99517L83.8822 10.681H82.0584L77.7238 4.94387L75.577 6.75948V10.681H73.9576L73.9535 10.677ZM96.5546 10.677V1.72156H92.1669V0.273978H102.566V1.72156H98.1781V10.677H96.5587H96.5546ZM104.206 10.677V0.253532H105.854V10.677H104.206ZM109.444 10.677V0.278067H119.197V1.79926H111.067V4.39182H116.404V5.88848H111.067V9.1803H119.646V10.677H109.444ZM137.377 3.24275H142.64V4.71487H137.377V3.24275Z" fill="#095093"/>
</svg>
