<svg width="130" height="12" viewBox="0 0 130 12" fill="none" xmlns="http://www.w3.org/2000/svg">
<path d="M0 11.6499V0.33256H1.76449V5.36645L7.75432 0.33256H10.0853L5.34069 4.35967L10.7935 11.6499H8.81066L4.09551 5.39014L1.76449 7.37408V11.6499H0ZM12.8826 11.6499V0.273338H14.6707V11.6499H12.8826ZM18.6009 11.6499V0.302949H19.5274L26.7093 8.27426V0.302949H28.4443V11.6499H27.5178L20.3359 3.7023V11.6499H18.6009ZM37.3494 0.302949C39.1965 0.302949 40.6836 0.835948 41.8167 1.8901C42.9438 2.95018 43.5104 4.32414 43.5104 6.01789C43.5104 7.72941 42.9557 9.09152 41.8462 10.1161C40.7368 11.1347 39.2378 11.6499 37.3435 11.6499H32.3392V0.302949H37.3435H37.3494ZM37.3789 1.93748H34.1096V10.0213H37.3789C38.7185 10.0213 39.7807 9.66006 40.5479 8.93754C41.3151 8.21503 41.6987 7.23195 41.6987 5.9942C41.6987 4.79791 41.3033 3.82075 40.5066 3.06862C39.7099 2.3165 38.6713 1.93748 37.3789 1.93748ZM46.3135 11.6499V0.302949H48.078V10.0154H56.4815V11.6499H46.3135ZM59.2551 11.6499V5.85799L54.1032 0.302949H56.3811L60.1344 4.33006L63.8109 0.302949H66.1714L60.9901 5.82838V11.6499H59.2551ZM78.936 5.0348H84.9435C85.5513 5.0348 86.0175 4.90451 86.3421 4.63801C86.6608 4.37151 86.826 3.98657 86.826 3.4891C86.826 2.99756 86.6608 2.61261 86.3421 2.35796C86.0234 2.09738 85.5572 1.96117 84.9435 1.96117H78.936V5.0348ZM78.936 6.69302V11.644H77.1715V0.326638H84.9435C86.1001 0.326638 87.003 0.604982 87.6581 1.16759C88.3131 1.72428 88.6377 2.50009 88.6377 3.49502C88.6377 4.30045 88.3781 4.99335 87.8587 5.58557C87.3453 6.17779 86.6726 6.53905 85.8405 6.66933L88.9918 11.6499H87.0739L83.8635 6.69895H78.936V6.69302ZM90.8684 10.1931L91.7241 8.70658C92.5031 9.22773 93.3529 9.63637 94.2676 9.92655C95.1882 10.2227 96.0675 10.3648 96.9054 10.3648C97.9146 10.3648 98.729 10.1634 99.3486 9.74889C99.9682 9.33433 100.275 8.80726 100.275 8.16766C100.275 7.51621 99.9918 7.04243 99.4253 6.72263C98.8588 6.40876 97.9677 6.23701 96.752 6.20148C94.6925 6.17187 93.2761 5.93498 92.509 5.48489C91.7418 5.02888 91.3582 4.28268 91.3582 3.24037C91.3582 2.2632 91.7772 1.48147 92.6211 0.889248C93.465 0.297026 94.598 0.000915527 96.0262 0.000915527C96.9999 0.000915527 97.9382 0.137127 98.8529 0.415471C99.7676 0.687893 100.647 1.09653 101.497 1.63545L100.606 3.10416C99.9033 2.63038 99.142 2.2632 98.3277 1.9967C97.5133 1.73613 96.7343 1.60584 95.9966 1.60584C95.141 1.60584 94.4446 1.75389 93.9253 2.05593C93.406 2.35796 93.1463 2.74883 93.1463 3.23445C93.1463 3.73784 93.406 4.09317 93.9312 4.31229C94.4564 4.52549 95.3711 4.63209 96.6635 4.63209C98.4693 4.63209 99.8207 4.93412 100.741 5.55003C101.656 6.16002 102.122 7.07205 102.122 8.27426C102.122 9.34618 101.656 10.2345 100.724 10.9452C99.7912 11.6499 98.5873 12.0053 97.1061 12.0053C96.0085 12.0053 94.9226 11.8454 93.8368 11.5315C92.7568 11.2176 91.7654 10.7734 90.8684 10.199V10.1931ZM110.207 11.644H109.292L103.615 0.297026H105.498L109.747 8.78949L113.931 0.297026H115.872L110.207 11.644ZM119.862 5.02888H126.318C126.92 5.02888 127.386 4.89859 127.704 4.63209C128.023 4.36559 128.188 3.98065 128.188 3.48318C128.188 2.99756 128.035 2.61854 127.722 2.35204C127.415 2.08554 126.973 1.95525 126.4 1.95525H119.867V5.02888H119.862ZM119.862 6.6871V11.6381H118.097V0.291104H126.312C127.48 0.291104 128.383 0.569449 129.026 1.12021C129.675 1.67098 130 2.45271 130 3.45357C130 4.40112 129.681 5.17694 129.038 5.781C128.389 6.38507 127.545 6.68118 126.501 6.68118H119.856L119.862 6.6871Z" fill="url(#paint0_linear_252_1237)"/>
<defs>
<linearGradient id="paint0_linear_252_1237" x1="0" y1="6.00012" x2="130.006" y2="6.00012" gradientUnits="userSpaceOnUse">
<stop stop-color="#531200"/>
<stop offset="0.2" stop-color="#967242"/>
<stop offset="0.490196" stop-color="#553D2D"/>
<stop offset="0.741176" stop-color="#A66A35"/>
<stop offset="1" stop-color="#3E2200"/>
</linearGradient>
</defs>
</svg>
